<?xml version="1.0" standalone="no"?>
<!DOCTYPE svg PUBLIC "-//W3C//DTD SVG 20010904//EN"
 "http://www.w3.org/TR/2001/REC-SVG-20010904/DTD/svg10.dtd">
<svg version="1.0" xmlns="http://www.w3.org/2000/svg"
 width="180.000000pt" height="180.000000pt" viewBox="0 0 180.000000 180.000000"
 preserveAspectRatio="xMidYMid meet">
<metadata>
Created by potrace 1.11, written by Peter Selinger 2001-2013
</metadata>
<g transform="translate(0.000000,180.000000) scale(0.100000,-0.100000)"
fill="#000000" stroke="none">
<path d="M631 1452 c-24 -24 -31 -25 -118 -25 l-93 1 -30 -36 c-17 -20 -30
-43 -30 -51 0 -10 -11 -4 -32 16 -47 45 -76 53 -155 44 -19 -2 -78 -65 -92
-99 -11 -27 -11 -37 -1 -57 7 -13 20 -25 29 -28 21 -5 84 16 89 31 4 14 -13
16 -37 3 -25 -14 -46 2 -33 25 30 56 99 77 133 41 10 -11 19 -26 19 -32 0 -5
9 -27 20 -48 11 -20 19 -42 18 -49 -2 -7 4 -12 12 -13 12 0 15 -12 13 -55 -7
-222 -7 -703 0 -737 l8 -43 97 -1 c228 -2 271 -2 345 5 43 4 97 16 120 26 l42
19 1 81 c2 94 7 110 31 105 63 -14 99 -12 142 8 58 26 63 27 67 2 2 -11 5 -38
9 -60 9 -72 18 -109 37 -157 8 -22 18 -28 53 -34 78 -11 139 -7 199 14 84 31
101 44 104 83 2 19 5 47 8 62 2 15 1 33 -3 40 -8 14 -10 25 -17 157 -3 52 -8
106 -11 120 -10 52 -21 140 -40 350 -13 141 -15 151 -33 166 -20 15 120 84
170 84 20 0 39 4 42 9 10 15 -74 45 -125 44 -58 0 -91 -20 -129 -77 l-25 -38
-120 6 -120 7 -11 -28 c-6 -15 -24 -59 -40 -98 -51 -129 -66 -125 -129 38 -26
67 -52 127 -58 134 -7 7 -29 15 -51 18 -58 10 -67 12 -126 29 -94 27 -120 27
-149 -2z m82 -19 c-7 -2 -19 -2 -25 0 -7 3 -2 5 12 5 14 0 19 -2 13 -5z"/>
</g>
</svg>
